<svg width="1372" height="389" viewBox="0 0 1372 389" fill="none" xmlns="http://www.w3.org/2000/svg">
<path d="M0.25 385V118.25H58.25V157.5H65.75L49.5 175C54 165.333 60.3333 155.833 68.5 146.5C76.6667 137.167 86.75 129.5 98.75 123.5C110.75 117.333 124.583 114.25 140.25 114.25C146.583 114.25 152.333 114.75 157.5 115.75C162.833 116.583 166.583 117.583 168.75 118.75L145 175.25C143.667 174.583 141.083 173.917 137.25 173.25C133.583 172.583 129.333 172.25 124.5 172.25C117.5 172.25 110.167 173.667 102.5 176.5C95 179.333 87.9167 183.583 81.25 189.25C74.75 194.917 69.4167 202 65.25 210.5C61.25 218.833 59.25 228.5 59.25 239.5V385H0.25ZM305 389C278 389 254.417 383.25 234.25 371.75C214.083 360.083 198.333 343.917 187 323.25C175.667 302.583 170 278.75 170 251.75C170 223.75 175.667 199.5 187 179C198.333 158.5 213.583 142.667 232.75 131.5C251.917 120.167 273.167 114.5 296.5 114.5C318.833 114.5 339 119.667 357 130C375.167 140.333 389.583 154.75 400.25 173.25C410.917 191.583 416.25 213.083 416.25 237.75C416.25 244.083 415.917 250 415.25 255.5C414.583 261 413.75 266.5 412.75 272H214.25V230.25H361C361 217.583 358.333 206.333 353 196.5C347.667 186.5 340.167 178.667 330.5 173C320.833 167.167 309.5 164.25 296.5 164.25C281.833 164.25 269 167.917 258 175.25C247.167 182.417 238.667 192.5 232.5 205.5C226.5 218.333 223.5 233.333 223.5 250.5C223.5 268 226.75 283.417 233.25 296.75C239.917 310.083 249.25 320.5 261.25 328C273.417 335.5 287.833 339.25 304.5 339.25C314 339.25 323 338.083 331.5 335.75C340 333.417 347.75 330.417 354.75 326.75C361.75 322.917 367.75 318.917 372.75 314.75L393 363.25C382.5 370.75 369.583 376.917 354.25 381.75C339.083 386.583 322.667 389 305 389ZM711 389C699.833 384.667 690.583 380.083 683.25 375.25C676.083 370.25 670.583 364.833 666.75 359C663.083 353 660.833 346.417 660 339.25L669.75 344.5H645.75L658.25 314V173L645.75 146H652V0H711V302.75C711 313.25 712.5 320.917 715.5 325.75C718.5 330.417 724.167 334.5 732.5 338L711 389ZM571.5 389C556.167 389 541.333 386 527 380C512.833 373.833 500.083 364.917 488.75 353.25C477.583 341.583 468.75 327.25 462.25 310.25C455.917 293.083 452.833 273.583 453 251.75C452.667 222.417 458.083 197.5 469.25 177C480.583 156.5 495.417 140.833 513.75 130C532.083 119.167 551.667 113.75 572.5 113.75C595 113.75 614.917 119.667 632.25 131.5C649.75 143.333 663.417 159.583 673.25 180.25C683.25 200.75 688.333 224.083 688.5 250.25C688.333 276.417 683.167 300 673 321C662.833 342 648.917 358.583 631.25 370.75C613.75 382.917 593.833 389 571.5 389ZM583.75 338C597.75 338 610.167 334.25 621 326.75C631.833 319.25 640.333 309 646.5 296C652.667 282.833 655.833 267.833 656 251C655.833 233 652.583 217.583 646.25 204.75C639.917 191.917 631.333 182.083 620.5 175.25C609.667 168.25 597.667 164.833 584.5 165C570.333 164.833 557.667 168.333 546.5 175.5C535.5 182.667 526.917 192.75 520.75 205.75C514.583 218.583 511.583 233.667 511.75 251C511.583 267.833 514.5 282.833 520.5 296C526.667 309 535.25 319.25 546.25 326.75C557.25 334.25 569.75 338 583.75 338ZM1022.5 389C1011.33 384.667 1002.08 380.083 994.75 375.25C987.583 370.25 982.083 364.833 978.25 359C974.583 353 972.333 346.417 971.5 339.25L981.25 344.5H957.25L969.75 314V173L957.25 146H963.5V0H1022.5V302.75C1022.5 313.25 1024 320.917 1027 325.75C1030 330.417 1035.67 334.5 1044 338L1022.5 389ZM883 389C867.667 389 852.833 386 838.5 380C824.333 373.833 811.583 364.917 800.25 353.25C789.083 341.583 780.25 327.25 773.75 310.25C767.417 293.083 764.333 273.583 764.5 251.75C764.167 222.417 769.583 197.5 780.75 177C792.083 156.5 806.917 140.833 825.25 130C843.583 119.167 863.167 113.75 884 113.75C906.5 113.75 926.417 119.667 943.75 131.5C961.25 143.333 974.917 159.583 984.75 180.25C994.75 200.75 999.833 224.083 1000 250.25C999.833 276.417 994.667 300 984.5 321C974.333 342 960.417 358.583 942.75 370.75C925.25 382.917 905.333 389 883 389ZM895.25 338C909.25 338 921.667 334.25 932.5 326.75C943.333 319.25 951.833 309 958 296C964.167 282.833 967.333 267.833 967.5 251C967.333 233 964.083 217.583 957.75 204.75C951.417 191.917 942.833 182.083 932 175.25C921.167 168.25 909.167 164.833 896 165C881.833 164.833 869.167 168.333 858 175.5C847 182.667 838.417 192.75 832.25 205.75C826.083 218.583 823.083 233.667 823.25 251C823.083 267.833 826 282.833 832 296C838.167 309 846.75 319.25 857.75 326.75C868.75 334.25 881.25 338 895.25 338ZM1095 385V118.25H1154V385H1095ZM1124.5 81C1113.33 81 1103.92 77.1667 1096.25 69.5C1088.75 61.8333 1085 52.5 1085 41.5C1085 30.5 1088.75 21.1667 1096.25 13.5C1103.92 5.83333 1113.33 2 1124.5 2C1135.5 2 1144.83 5.83333 1152.5 13.5C1160.17 21.1667 1164 30.5 1164 41.5C1164 52.5 1160.17 61.8333 1152.5 69.5C1144.83 77.1667 1135.5 81 1124.5 81ZM1326.25 389C1297.92 389 1276.5 381 1262 365C1247.67 349 1240.5 328.5 1240.5 303.5V36.25H1299.5V299.25C1299.5 312.083 1302.5 321.5 1308.5 327.5C1314.5 333.5 1322 336.5 1331 336.5C1335 336.5 1338.75 336 1342.25 335C1345.75 333.833 1348.92 332.5 1351.75 331L1372 379.25C1365.83 382.25 1358.92 384.583 1351.25 386.25C1343.58 388.083 1335.25 389 1326.25 389ZM1196.5 167.5V118.25H1363.5V167.5H1196.5Z" fill="white"/>
</svg>
